<svg width="720" height="520" viewBox="0 0 720 520" fill="none" xmlns="http://www.w3.org/2000/svg" role="img" aria-labelledby="title desc">
  <title id="title">复习地图</title>
  <desc id="desc">用简笔线稿展示首页、课程子页面和知识点的复习路径</desc>
  <rect x="18" y="18" width="684" height="484" rx="10" fill="#FFFAF0" stroke="#18211F" stroke-width="4"/>
  <path d="M58 90H662M58 138H662M58 186H662M58 234H662M58 282H662M58 330H662M58 378H662M58 426H662" stroke="#D9D0BD" stroke-width="2" stroke-dasharray="7 13"/>
  <path d="M92 70C142 44 218 47 258 75" stroke="#18211F" stroke-width="3" stroke-linecap="round"/>
  <path d="M472 454C531 482 601 475 640 438" stroke="#18211F" stroke-width="3" stroke-linecap="round"/>

  <g stroke="#18211F" stroke-width="4" stroke-linejoin="round">
    <rect x="78" y="116" width="148" height="92" rx="6" fill="#F7F3E8"/>
    <rect x="286" y="96" width="148" height="92" rx="6" fill="#F7F3E8"/>
    <rect x="494" y="116" width="148" height="92" rx="6" fill="#F7F3E8"/>
    <rect x="96" y="308" width="130" height="92" rx="6" fill="#F7F3E8"/>
    <rect x="296" y="296" width="130" height="92" rx="6" fill="#F7F3E8"/>
    <rect x="496" y="308" width="130" height="92" rx="6" fill="#F7F3E8"/>
  </g>

  <g stroke="#1D6F67" stroke-width="5" stroke-linecap="round" stroke-linejoin="round">
    <path d="M226 162C245 153 264 147 286 142"/>
    <path d="M434 142C456 147 475 153 494 162"/>
    <path d="M153 208C153 248 155 278 161 308"/>
    <path d="M360 188C360 226 360 258 361 296"/>
    <path d="M568 208C568 248 566 278 561 308"/>
  </g>

  <g stroke="#B53B36" stroke-width="4" stroke-linecap="round" stroke-linejoin="round">
    <path d="M275 138L288 141L279 151"/>
    <path d="M483 151L494 162L479 165"/>
    <path d="M158 294L161 308L150 298"/>
    <path d="M361 282L361 296L351 286"/>
    <path d="M563 294L561 308L572 298"/>
  </g>

  <g fill="#18211F" font-family="Georgia, serif" font-weight="700">
    <text x="92" y="76" font-size="30">Review Route</text>
    <text x="110" y="154" font-size="23">Home</text>
    <text x="318" y="134" font-size="23">Course</text>
    <text x="524" y="154" font-size="23">Pages</text>
    <text x="119" y="346" font-size="21">Terms</text>
    <text x="317" y="334" font-size="21">Q&amp;A</text>
    <text x="522" y="346" font-size="21">Summary</text>
  </g>

  <g stroke="#65706D" stroke-width="3" stroke-linecap="round">
    <path d="M104 174H194"/>
    <path d="M104 188H173"/>
    <path d="M312 154H405"/>
    <path d="M312 168H382"/>
    <path d="M520 174H612"/>
    <path d="M520 188H590"/>
    <path d="M122 366H200"/>
    <path d="M122 380H178"/>
    <path d="M322 354H400"/>
    <path d="M322 368H378"/>
    <path d="M522 366H600"/>
    <path d="M522 380H578"/>
  </g>

  <g stroke="#C98B2B" stroke-width="4" stroke-linecap="round" stroke-linejoin="round">
    <path d="M106 337L116 349L138 326"/>
    <path d="M306 325L316 337L338 314"/>
    <path d="M506 337L516 349L538 326"/>
  </g>

  <path d="M108 454H392" stroke="#18211F" stroke-width="4" stroke-linecap="round"/>
  <path d="M405 454L436 443L423 474L405 454Z" fill="#F7F3E8" stroke="#18211F" stroke-width="4" stroke-linejoin="round"/>
  <path d="M416 453L425 462" stroke="#18211F" stroke-width="3" stroke-linecap="round"/>
  <text x="108" y="488" fill="#65706D" font-family="Segoe UI, sans-serif" font-size="20">Home / Course / Topic</text>
</svg>
